<?xml version="1.0" encoding="UTF-8"?>
<!DOCTYPE svg PUBLIC "-//W3C//DTD SVG 1.1//EN" "http://www.w3.org/Graphics/SVG/1.1/DTD/svg11.dtd">
<svg xmlns="http://www.w3.org/2000/svg" version="1.1" width="1024px" height="1024px" style="shape-rendering:geometricPrecision; text-rendering:geometricPrecision; image-rendering:optimizeQuality; fill-rule:evenodd; clip-rule:evenodd" xmlns:xlink="http://www.w3.org/1999/xlink">
<g><path style="opacity:1" fill="#fcfcfc" d="M -0.5,-0.5 C 340.833,-0.5 682.167,-0.5 1023.5,-0.5C 1023.5,340.833 1023.5,682.167 1023.5,1023.5C 682.167,1023.5 340.833,1023.5 -0.5,1023.5C -0.5,682.167 -0.5,340.833 -0.5,-0.5 Z"/></g>
<g><path style="opacity:1" fill="#be992c" d="M 645.5,110.5 C 646.5,110.5 647.5,110.5 648.5,110.5C 649.559,117.798 649.726,125.131 649,132.5C 644.002,150.495 638.002,168.161 631,185.5C 603.162,249.672 574.162,313.339 544,376.5C 535.416,363 527.082,349.333 519,335.5C 517.41,333.35 516.743,331.017 517,328.5C 560.108,255.943 602.942,183.276 645.5,110.5 Z"/></g>
<g><path style="opacity:1" fill="#be992c" d="M 374.5,110.5 C 377.292,110.452 379.125,111.785 380,114.5C 450.578,234.663 521.911,354.329 594,473.5C 594.689,474.357 595.522,475.023 596.5,475.5C 624.33,459.83 650.996,461.664 676.5,481C 702.622,505.952 707.788,534.785 692,567.5C 673.765,595.145 648.265,605.645 615.5,599C 582.737,587.852 566.071,564.852 565.5,530C 565.557,524.384 566.39,518.884 568,513.5C 570.465,507.273 572.631,500.94 574.5,494.5C 574.101,492.803 573.601,491.137 573,489.5C 556.345,459.175 532.345,436.841 501,422.5C 464.239,345.646 428.572,268.312 394,190.5C 386.472,172.583 380.139,154.25 375,135.5C 373.404,127.17 373.237,118.837 374.5,110.5 Z"/></g>
<g><path style="opacity:1" fill="#fbfbf8" d="M 508.5,377.5 C 517.207,377.037 520.707,381.037 519,389.5C 516.398,393.212 512.898,394.378 508.5,393C 504.139,390.774 502.639,387.274 504,382.5C 505.366,380.638 506.866,378.972 508.5,377.5 Z"/></g>
<g><path style="opacity:1" fill="#be982b" d="M 478.5,393.5 C 484.481,404.129 489.981,415.129 495,426.5C 496.938,429.106 499.438,430.939 502.5,432C 481.082,448.415 463.582,468.249 450,491.5C 449.333,493.167 449.333,494.833 450,496.5C 457.884,514.619 459.551,533.285 455,552.5C 443.04,585.913 419.207,602.08 383.5,601C 347.752,595.252 327.586,574.419 323,538.5C 322.335,501.831 339.501,477.998 374.5,467C 393.517,462.805 411.35,465.639 428,475.5C 445.596,448.642 462.43,421.308 478.5,393.5 Z"/></g>
<g><path style="opacity:1" fill="#fbfbfb" d="M 384.5,481.5 C 418.932,481.265 437.932,498.265 441.5,532.5C 439.097,565.07 421.597,582.403 389,584.5C 367.131,582.569 351.798,571.569 343,551.5C 335.44,526.179 342.274,505.679 363.5,490C 370.342,486.45 377.342,483.616 384.5,481.5 Z"/></g>
<g><path style="opacity:1" fill="#fbfbfa" d="M 624.5,481.5 C 654.797,480.65 674.297,494.65 683,523.5C 686.261,556.49 671.761,576.657 639.5,584C 614.362,585.688 596.528,575.188 586,552.5C 577.604,525.687 584.771,504.187 607.5,488C 613.16,485.507 618.826,483.341 624.5,481.5 Z"/></g>
<g><path style="opacity:1" fill="#be992c" d="M 308.5,734.5 C 309.658,712.543 309.824,689.21 309,664.5C 308.166,661.741 306.666,660.741 304.5,661.5C 300.205,661.55 297.872,659.55 297.5,655.5C 310.5,655.5 323.5,655.5 336.5,655.5C 336.5,656.833 336.5,658.167 336.5,659.5C 332.69,659.379 329.523,660.712 327,663.5C 326.333,689.5 326.333,715.5 327,741.5C 329.237,744.758 332.403,746.425 336.5,746.5C 336.5,747.833 336.5,749.167 336.5,750.5C 323.5,750.5 310.5,750.5 297.5,750.5C 297.33,749.178 297.663,748.011 298.5,747C 301.22,746.203 303.72,745.037 306,743.5C 306.973,740.421 307.806,737.421 308.5,734.5 Z"/></g>
<g><path style="opacity:1" fill="#bf992e" d="M 518.5,655.5 C 519.533,662.344 520.033,669.344 520,676.5C 518.667,677.833 517.333,677.833 516,676.5C 511.393,666.192 503.393,661.859 492,663.5C 488.447,663.537 484.947,663.87 481.5,664.5C 480.501,675.814 480.168,687.147 480.5,698.5C 488.44,698.639 495.94,696.972 503,693.5C 504.411,690.421 505.911,687.421 507.5,684.5C 508.736,685.246 510.07,685.579 511.5,685.5C 511.82,696.082 511.487,706.582 510.5,717C 509.5,717.667 508.5,717.667 507.5,717C 505.913,712.151 502.913,708.484 498.5,706C 492.231,704.743 485.898,704.243 479.5,704.5C 479.333,715.838 479.5,727.172 480,738.5C 480.785,740.286 481.951,741.786 483.5,743C 495.614,745.219 506.78,743.052 517,736.5C 518.753,733.995 520.253,731.329 521.5,728.5C 523.045,727.548 524.712,727.215 526.5,727.5C 525.199,734.036 523.532,740.37 521.5,746.5C 520.596,747.209 520.263,748.209 520.5,749.5C 497.603,750.14 474.936,749.473 452.5,747.5C 456.752,746.949 459.585,744.616 461,740.5C 461.5,716.502 461.667,692.502 461.5,668.5C 462.332,684.995 462.832,701.662 463,718.5C 463.667,701.5 463.667,684.5 463,667.5C 461.722,662.388 458.555,659.055 453.5,657.5C 474.776,657.392 496.109,657.059 517.5,656.5C 518.003,661.5 518.336,661.167 518.5,655.5 Z"/></g>
<g><path style="opacity:1" fill="#be982b" d="M 680.5,662.5 C 679.778,662.918 679.278,663.584 679,664.5C 678.177,685.211 678.344,704.544 679.5,722.5C 682.289,739.428 692.289,746.595 709.5,744C 719.306,742.194 725.139,736.361 727,726.5C 727.929,721.713 728.429,716.88 728.5,712C 727.809,695.84 727.309,679.674 727,663.5C 726.5,662.333 725.667,661.5 724.5,661C 722.5,660.667 720.5,660.333 718.5,660C 717.62,658.644 717.286,657.144 717.5,655.5C 727.167,655.5 736.833,655.5 746.5,655.5C 746.5,656.833 746.5,658.167 746.5,659.5C 743.62,659.94 740.954,660.94 738.5,662.5C 738.489,660.983 737.823,659.816 736.5,659C 736.833,658.667 737.167,658.333 737.5,658C 732.309,657.703 727.143,657.203 722,656.5C 721.167,656.833 720.333,657.167 719.5,657.5C 722.908,658.284 725.741,659.951 728,662.5C 729.248,683.134 729.915,703.801 730,724.5C 731.273,722.286 732.273,719.953 733,717.5C 733.333,718.833 733.667,720.167 734,721.5C 734.013,703.397 734.847,686.064 736.5,669.5C 736.667,685.17 736.5,700.837 736,716.5C 734.004,744.146 719.171,755.979 691.5,752C 675.193,749.69 665.359,740.524 662,724.5C 661.667,705.167 661.333,685.833 661,666.5C 659.394,662.108 656.228,659.775 651.5,659.5C 651.5,658.167 651.5,656.833 651.5,655.5C 664.167,655.5 676.833,655.5 689.5,655.5C 689.5,656.833 689.5,658.167 689.5,659.5C 685.997,659.129 682.997,660.129 680.5,662.5 Z"/></g>
<g><path style="opacity:1" fill="#be982b" d="M 392.5,653.5 C 402.28,653.469 411.947,654.469 421.5,656.5C 422.78,663.704 423.113,670.871 422.5,678C 421.207,678.49 419.873,678.657 418.5,678.5C 415.481,664.479 406.814,658.646 392.5,661C 386.029,662.639 382.696,666.806 382.5,673.5C 382.917,679.834 385.584,685.001 390.5,689C 398.995,693.413 407.328,698.08 415.5,703C 425.535,709.914 429.368,719.414 427,731.5C 422.004,744.276 412.504,751.109 398.5,752C 386.9,753.478 375.734,751.978 365,747.5C 364.168,740.185 363.668,732.852 363.5,725.5C 364.978,725.238 366.311,725.571 367.5,726.5C 374.052,744.422 386.386,749.922 404.5,743C 410.843,737.105 412.01,730.271 408,722.5C 405.463,719.628 402.63,717.128 399.5,715C 388.524,710.6 379.024,704.1 371,695.5C 361.961,673.245 369.128,659.245 392.5,653.5 Z"/></g>
<g><path style="opacity:1" fill="#b58913" d="M 518.5,655.5 C 518.336,661.167 518.003,661.5 517.5,656.5C 496.109,657.059 474.776,657.392 453.5,657.5C 458.555,659.055 461.722,662.388 463,667.5C 463.667,684.5 463.667,701.5 463,718.5C 462.832,701.662 462.332,684.995 461.5,668.5C 460.833,663.167 457.833,660.167 452.5,659.5C 452.5,658.167 452.5,656.833 452.5,655.5C 474.5,655.5 496.5,655.5 518.5,655.5 Z"/></g>
<g><path style="opacity:1" fill="#be972b" d="M 589.5,655.5 C 591.5,655.5 593.5,655.5 595.5,655.5C 605.362,681.915 615.529,708.249 626,734.5C 628.191,741.195 632.691,745.195 639.5,746.5C 639.5,747.833 639.5,749.167 639.5,750.5C 626.163,750.667 612.829,750.5 599.5,750C 598.167,749 598.167,748 599.5,747C 602.149,746.548 604.649,745.714 607,744.5C 607.167,743.167 607.333,741.833 607.5,740.5C 606.035,734.107 604.369,727.774 602.5,721.5C 592.097,721.334 581.764,721.334 571.5,721.5C 569.068,727.628 566.735,733.794 564.5,740C 565.991,744.093 568.991,746.26 573.5,746.5C 574.429,747.689 574.762,749.022 574.5,750.5C 564.167,750.5 553.833,750.5 543.5,750.5C 543.5,749.167 543.5,747.833 543.5,746.5C 548.482,746.012 552.315,743.678 555,739.5C 566.239,711.36 577.739,683.36 589.5,655.5 Z"/></g>
<g><path style="opacity:1" fill="#be972a" d="M 846.5,744.5 C 847.591,746.135 849.591,747.468 852.5,748.5C 839.833,749.833 827.167,749.833 814.5,748.5C 818.589,747.97 821.256,745.804 822.5,742C 820.779,737.382 818.446,733.216 815.5,729.5C 811.692,723.23 807.859,716.897 804,710.5C 796.927,720.812 790.76,731.646 785.5,743C 787.808,745.816 790.808,746.983 794.5,746.5C 794.5,747.833 794.5,749.167 794.5,750.5C 783.833,750.5 773.167,750.5 762.5,750.5C 762.5,749.167 762.5,747.833 762.5,746.5C 768.27,746.03 772.77,743.363 776,738.5C 784.21,727.243 792.043,715.743 799.5,704C 792.466,692.1 785.299,680.266 778,668.5C 774.752,663.629 770.252,660.963 764.5,660.5C 764.5,658.833 764.5,657.167 764.5,655.5C 777.158,656.584 789.825,656.584 802.5,655.5C 802.5,656.833 802.5,658.167 802.5,659.5C 799.01,659.245 796.343,660.578 794.5,663.5C 799.8,673.295 805.3,682.962 811,692.5C 817.47,683.063 823.303,673.23 828.5,663C 828.355,662.228 828.022,661.561 827.5,661C 825.5,660.667 823.5,660.333 821.5,660C 820.167,658.667 820.167,657.333 821.5,656C 830.827,655.5 840.161,655.334 849.5,655.5C 849.714,657.144 849.38,658.644 848.5,660C 843.332,660.834 839.165,663.334 836,667.5C 828.758,677.741 821.924,688.241 815.5,699C 823.535,712.234 831.702,725.401 840,738.5C 842.063,740.734 844.229,742.734 846.5,744.5 Z"/></g>
<g><path style="opacity:1" fill="#be972a" d="M 227.5,653.5 C 239.186,653.232 250.686,654.565 262,657.5C 264.27,656.14 266.77,655.473 269.5,655.5C 269.522,663.53 269.022,671.53 268,679.5C 266.644,680.38 265.144,680.714 263.5,680.5C 261.389,669.558 254.723,663.058 243.5,661C 216.694,660.303 203.027,673.47 202.5,700.5C 201.515,716.68 207.181,729.847 219.5,740C 233.642,747.792 247.308,747.125 260.5,738C 263.068,734.333 265.735,730.833 268.5,727.5C 269.737,727.556 270.737,728.056 271.5,729C 269.957,733.708 268.79,738.541 268,743.5C 263.249,747.533 257.749,750.033 251.5,751C 232.764,755.407 215.43,752.407 199.5,742C 184.034,727.258 178.867,709.425 184,688.5C 189.074,673.092 199.241,662.592 214.5,657C 218.929,655.682 223.262,654.516 227.5,653.5 Z"/></g>
<g><path style="opacity:1" fill="#c09b2f" d="M 738.5,662.5 C 738.279,665.067 737.612,667.401 736.5,669.5C 734.847,686.064 734.013,703.397 734,721.5C 733.667,720.167 733.333,718.833 733,717.5C 732.273,719.953 731.273,722.286 730,724.5C 729.915,703.801 729.248,683.134 728,662.5C 725.741,659.951 722.908,658.284 719.5,657.5C 720.333,657.167 721.167,656.833 722,656.5C 727.143,657.203 732.309,657.703 737.5,658C 737.167,658.333 736.833,658.667 736.5,659C 737.823,659.816 738.489,660.983 738.5,662.5 Z"/></g>
<g><path style="opacity:1" fill="#fbfaf8" d="M 586.5,677.5 C 591.198,688.578 595.531,699.911 599.5,711.5C 598.167,711.833 596.833,712.167 595.5,712.5C 588.514,711.824 581.514,711.324 574.5,711C 579.195,700.081 583.195,688.914 586.5,677.5 Z"/></g>
<g><path style="opacity:1" fill="#ae7f02" d="M 304.5,661.5 C 306.666,660.741 308.166,661.741 309,664.5C 309.824,689.21 309.658,712.543 308.5,734.5C 308.667,711.498 308.5,688.498 308,665.5C 307.34,663.676 306.173,662.343 304.5,661.5 Z"/></g>
<g><path style="opacity:1" fill="#ab7a03" d="M 680.5,662.5 C 679.536,682.466 679.202,702.466 679.5,722.5C 678.344,704.544 678.177,685.211 679,664.5C 679.278,663.584 679.778,662.918 680.5,662.5 Z"/></g>
<g><path style="opacity:1" fill="#ad7b00" d="M 521.5,746.5 C 521.5,747.833 521.5,749.167 521.5,750.5C 498.5,750.5 475.5,750.5 452.5,750.5C 452.5,749.5 452.5,748.5 452.5,747.5C 474.936,749.473 497.603,750.14 520.5,749.5C 520.263,748.209 520.596,747.209 521.5,746.5 Z"/></g>
<g><path style="opacity:1" fill="#b1810b" d="M 815.5,729.5 C 818.446,733.216 820.779,737.382 822.5,742C 821.256,745.804 818.589,747.97 814.5,748.5C 827.167,749.833 839.833,749.833 852.5,748.5C 849.591,747.468 847.591,746.135 846.5,744.5C 848.746,745.455 851.079,746.122 853.5,746.5C 853.5,747.833 853.5,749.167 853.5,750.5C 839.833,750.5 826.167,750.5 812.5,750.5C 812.5,749.167 812.5,747.833 812.5,746.5C 816.651,747.267 819.317,745.767 820.5,742C 818.966,737.768 817.3,733.601 815.5,729.5 Z"/></g>
<g><path style="opacity:1" fill="#be982c" d="M 458.5,792.5 C 468.595,793.096 473.095,798.43 472,808.5C 469.231,819.939 462.231,827.606 451,831.5C 449.558,830.788 448.725,829.621 448.5,828C 453.097,825.103 457.264,821.603 461,817.5C 463.151,814.784 462.984,812.284 460.5,810C 447.896,805.566 447.229,799.733 458.5,792.5 Z"/></g>
<g><path style="opacity:1" fill="#be982b" d="M 538.5,791.5 C 578.885,791.381 597.718,811.381 595,851.5C 589.62,873.547 575.786,886.714 553.5,891C 531.389,894.186 513.555,887.019 500,869.5C 489.46,849.743 490.127,830.41 502,811.5C 511.752,800.211 523.919,793.544 538.5,791.5 Z"/></g>
<g><path style="opacity:1" fill="#bf992c" d="M 335.5,878.5 C 335.369,879.239 335.536,879.906 336,880.5C 336.333,878.833 336.667,877.167 337,875.5C 337.167,863.833 337.333,852.167 337.5,840.5C 337.51,828.425 337.177,817.092 336.5,806.5C 335.245,801.911 332.245,798.911 327.5,797.5C 326.571,796.311 326.238,794.978 326.5,793.5C 343.503,793.333 360.503,793.5 377.5,794C 409.772,798.599 424.606,817.099 422,849.5C 416.428,872.401 401.928,885.568 378.5,889C 361.5,889.667 344.5,889.667 327.5,889C 326.028,885.448 327.362,883.782 331.5,884C 333.469,882.5 334.802,880.667 335.5,878.5 Z"/></g>
<g><path style="opacity:1" fill="#be982b" d="M 619.5,793.5 C 635.503,793.333 651.503,793.5 667.5,794C 688.541,797.358 696.041,809.191 690,829.5C 686.28,836.054 681.114,841.054 674.5,844.5C 681.31,858.629 689.976,871.463 700.5,883C 702.909,884.707 705.575,885.54 708.5,885.5C 708.714,887.144 708.38,888.644 707.5,890C 692.881,892.437 681.381,887.604 673,875.5C 668.126,866.247 662.626,857.413 656.5,849C 653.243,847.957 649.91,847.457 646.5,847.5C 646.334,857.506 646.5,867.506 647,877.5C 648.927,882.059 652.427,884.559 657.5,885C 658.517,886.049 658.684,887.216 658,888.5C 645.333,889.833 632.667,889.833 620,888.5C 619.411,885.21 620.911,883.71 624.5,884C 626.049,882.786 627.215,881.286 628,879.5C 628.667,853.5 628.667,827.5 628,801.5C 625.581,799.415 622.747,798.415 619.5,798.5C 619.5,796.833 619.5,795.167 619.5,793.5 Z"/></g>
<g><path style="opacity:1" fill="#fbfbfa" d="M 537.5,798.5 C 557.73,797.886 569.896,807.553 574,827.5C 577.918,844.989 575.252,861.322 566,876.5C 558.29,884.028 549.123,886.528 538.5,884C 523.947,878.09 515.78,867.257 514,851.5C 512.894,840.693 513.561,830.026 516,819.5C 519.811,808.854 526.977,801.854 537.5,798.5 Z"/></g>
<g><path style="opacity:1" fill="#fbfbfa" d="M 357.5,800.5 C 380.978,798.641 395.811,808.974 402,831.5C 403.324,842.743 402.324,853.743 399,864.5C 389.936,880.276 376.436,886.109 358.5,882C 357.069,881.535 355.903,880.701 355,879.5C 354.5,853.502 354.333,827.502 354.5,801.5C 355.791,801.737 356.791,801.404 357.5,800.5 Z"/></g>
<g><path style="opacity:1" fill="#fbfbfa" d="M 654.5,841.5 C 652.167,841.5 649.833,841.5 647.5,841.5C 647.5,837.5 647.5,833.5 647.5,829.5C 647.168,819.81 647.502,810.144 648.5,800.5C 660.037,797.518 667.871,801.518 672,812.5C 674.378,822.834 671.878,831.668 664.5,839C 661.392,840.759 658.059,841.592 654.5,841.5 Z"/></g>
<g><path style="opacity:1" fill="#d0b564" d="M 647.5,829.5 C 647.5,833.5 647.5,837.5 647.5,841.5C 649.833,841.5 652.167,841.5 654.5,841.5C 652.052,842.473 649.385,842.806 646.5,842.5C 646.182,837.968 646.515,833.634 647.5,829.5 Z"/></g>
<g><path style="opacity:1" fill="#ad7d02" d="M 335.5,878.5 C 336.428,854.517 336.761,830.517 336.5,806.5C 337.177,817.092 337.51,828.425 337.5,840.5C 337.333,852.167 337.167,863.833 337,875.5C 336.667,877.167 336.333,878.833 336,880.5C 335.536,879.906 335.369,879.239 335.5,878.5 Z"/></g>
</svg>